<svg version="1.1" xmlns="http://www.w3.org/2000/svg" viewBox="0 0 262.829345703125 193.77780151367188" width="262.829345703125" height="193.77780151367188" filter="invert(93%) hue-rotate(180deg)" class="excalidraw-svg">
  <!-- svg-source:excalidraw -->
  
  <defs>
    <style class="style-fonts">
      
    </style>
    
  </defs>
  <g stroke-linecap="round" transform="translate(10 10) rotate(0 121.4146728515625 86.88890075683594)"><path d="M32 0 C88.75 -0.22, 148.89 1.02, 210.83 0 M32 0 C95.25 0.84, 157.29 0.93, 210.83 0 M210.83 0 C231.07 1.76, 241.29 9.61, 242.83 32 M210.83 0 C231.11 2.27, 245.12 11.45, 242.83 32 M242.83 32 C242.96 75.54, 241.26 116.04, 242.83 141.78 M242.83 32 C242.53 64.77, 242.29 98.18, 242.83 141.78 M242.83 141.78 C242.56 163.51, 233.4 173.11, 210.83 173.78 M242.83 141.78 C244.94 161.13, 233.07 172.79, 210.83 173.78 M210.83 173.78 C152.29 173.16, 97.63 172.18, 32 173.78 M210.83 173.78 C147.67 173.79, 82.33 174.28, 32 173.78 M32 173.78 C10.56 174.95, 0.12 163.1, 0 141.78 M32 173.78 C11.21 175.32, 1.78 163.03, 0 141.78 M0 141.78 C-1.32 106.49, -0.33 68.9, 0 32 M0 141.78 C-1.6 104.39, -1.73 64.94, 0 32 M0 32 C-1.65 9.28, 8.73 0.56, 32 0 M0 32 C1.98 10.84, 8.91 1.92, 32 0" stroke="#1e1e1e" stroke-width="2" fill="none"></path></g></svg>