<svg version="1.1" xmlns="http://www.w3.org/2000/svg" viewBox="0 0 257.7672119140625 139.47201538085938" width="257.7672119140625" height="139.47201538085938" filter="invert(93%) hue-rotate(180deg)" class="excalidraw-svg">
  <!-- svg-source:excalidraw -->
  
  <defs>
    <style class="style-fonts">
      
    </style>
    
  </defs>
  <g stroke-linecap="round" transform="translate(10 10) rotate(0 118.88360595703125 59.73600769042969)"><path d="M29.87 0 C68.53 -1.11, 109.67 0.62, 207.9 0 M29.87 0 C97.68 -0.54, 165.09 -1.52, 207.9 0 M207.9 0 C226.02 0.95, 238.76 8.18, 237.77 29.87 M207.9 0 C226.74 -0.58, 235.87 11.38, 237.77 29.87 M237.77 29.87 C238.74 45.76, 238.01 65.64, 237.77 89.6 M237.77 29.87 C237.72 50.81, 238.19 74.1, 237.77 89.6 M237.77 89.6 C237.08 109.11, 228.24 119.62, 207.9 119.47 M237.77 89.6 C237.79 108.53, 227.03 121.32, 207.9 119.47 M207.9 119.47 C146.66 119.92, 88.71 118.89, 29.87 119.47 M207.9 119.47 C160.7 119.26, 113.95 119.21, 29.87 119.47 M29.87 119.47 C11.41 119.38, 1.03 108.17, 0 89.6 M29.87 119.47 C8.1 120.39, -1.38 108.59, 0 89.6 M0 89.6 C-1.22 73.71, -0.59 61.9, 0 29.87 M0 89.6 C-1.15 65.09, 0.38 42.86, 0 29.87 M0 29.87 C-0.53 10.85, 9.97 -0.76, 29.87 0 M0 29.87 C2.29 10.21, 9.35 -0.28, 29.87 0" stroke="#1e1e1e" stroke-width="2" fill="none"></path></g></svg>