<svg version="1.1" xmlns="http://www.w3.org/2000/svg" viewBox="0 0 201.90164184570315 154.70123291015625" width="201.90164184570315" height="154.70123291015625" filter="invert(93%) hue-rotate(180deg)" class="excalidraw-svg">
  <!-- svg-source:excalidraw -->
  
  <defs>
    <style class="style-fonts">
      
    </style>
    
  </defs>
  <g stroke-linecap="round" transform="translate(10 10) rotate(0 90.95082092285158 67.35061645507812)"><path d="M90.13 0.11 C101.59 -1, 115.61 1.79, 127.07 5.49 C138.53 9.18, 150.42 15.38, 158.89 22.3 C167.36 29.23, 174.13 38.49, 177.89 47.01 C181.65 55.53, 182.77 64.58, 181.47 73.43 C180.16 82.28, 176.2 92.06, 170.06 100.12 C163.92 108.18, 154.69 116.36, 144.64 121.81 C134.59 127.27, 121.84 131.08, 109.75 132.86 C97.66 134.63, 84.24 134.33, 72.11 132.46 C59.98 130.59, 46.93 126.73, 36.98 121.64 C27.03 116.54, 18.31 109.58, 12.39 101.87 C6.47 94.16, 2.69 84.51, 1.48 75.38 C0.27 66.26, 1.55 55.92, 5.13 47.13 C8.71 38.33, 15.01 29.52, 22.97 22.63 C30.92 15.74, 39.7 9.35, 52.86 5.78 C66.02 2.21, 92.06 1.59, 101.92 1.22 C111.77 0.85, 112.22 2.41, 112 3.56 M118.33 4.78 C129.56 6.76, 142.1 13.15, 151.21 18.86 C160.32 24.56, 167.71 30.8, 173 38.99 C178.29 47.18, 182.67 58.87, 182.95 67.98 C183.24 77.1, 179.79 85.2, 174.72 93.7 C169.65 102.19, 161.66 112.67, 152.51 118.95 C143.35 125.23, 131.95 129.01, 119.79 131.38 C107.63 133.75, 91.81 134.15, 79.56 133.2 C67.31 132.24, 56.93 130.32, 46.3 125.65 C35.66 120.99, 23.34 112.76, 15.77 105.19 C8.21 97.62, 3.22 89.14, 0.91 80.22 C-1.4 71.3, -1.06 60.67, 1.91 51.66 C4.87 42.66, 11.36 33.39, 18.69 26.2 C26.02 19, 35.13 12.94, 45.88 8.51 C56.63 4.07, 70.97 0.3, 83.19 -0.41 C95.42 -1.13, 113.38 3.34, 119.23 4.23 C125.08 5.13, 118.84 4, 118.28 4.98" stroke="#1e1e1e" stroke-width="2" fill="none"></path></g></svg>